<?xml version="1.0" encoding="UTF-8"?>
<svg id="Layer_1" xmlns="http://www.w3.org/2000/svg" xmlns:xlink="http://www.w3.org/1999/xlink" version="1.1" viewBox="0 0 136 56">
  <!-- Generator: Adobe Illustrator 29.3.1, SVG Export Plug-In . SVG Version: 2.1.0 Build 151)  -->
  <defs>
    <style>
      .st0 {
        fill: none;
      }

      .st1 {
        fill: #382923;
      }

      .st2 {
        fill: #fff;
      }

      .st3 {
        fill: #cf3d16;
      }

      .st4 {
        fill: #897363;
      }

      .st5 {
        fill: #372823;
      }

      .st6 {
        clip-path: url(#clippath);
      }
    </style>
    <clipPath id="clippath">
      <rect class="st0" width="134.3" height="49.2"/>
    </clipPath>
  </defs>
  <g class="st6">
    <g>
      <path class="st2" d="M39.3,13.4c-1.6,6-3.3,11.2-7.3,11.2s-6.8,17.3-10.9,20c-4.4,3-7-8.8-7.3-10.8-.5-3.4,1.3-9.2,6-21.3C21.2,6.4,24.8.8,31.7.4c4.3-.3,9.2,7,7.6,13Z"/>
      <path class="st4" d="M19.7,44.6s-1.4-4.1-1.6-7.3c-.2-3.2.7-5.1.7-5.1,0,0,1,2.9,4.8,5.8,3.8,2.8,3.6,1.2,3.7.9.2-.3,0-2.2-.9-4.2-.8-2-1.4-3.1-1.6-7.2-.2-4.1,1.9-7,2.8-8.8.6-1.2.2-3.1-.2-4.3-.1-.3-.2-.6-.3-.9,0-.2-.1-.3-.1-.3,0,0,0,0,0,0,0-.2-.1-.4-.2-.7,1.1,1.1,4.9,3.9,7.6,3.6,2.7-.3,3-5.4,3-5.4.7,1.2.2,3.4,0,4,.1-.1.3-.3.7-.5,1.4-1,2.1-3.8,2.1-3.8-.2-2.1-.7-3.4-1.3-4.1-.4,1.2-1.4,2.7-2.1,2.9-1.4.4-4.9-1.8-4.3-3.1.2-.5.8-.9,1.6-1.1-1.2.2-2.1,0-3.4.2-.6.2-1,.2-2.2.8-1.4.7-1.6,1.1-2.1,1.6-1.7,1.6-3.8,4-4.3,5-1,1.9-2,3.9,2,4.5-1,1-3.7-.3-3.7-.3,0,0-3.8,6.4-4.5,14.1-.6,7.7,2.6,13.1,3.5,14h0Z"/>
      <path class="st5" d="M39,4.3c-.9-.3-3.1-.1-4.6.5-.8.3-1.4.7-1.6,1.1-.6,1.3,2.9,3.5,4.3,3.1.7-.2,1.6-1.6,2.1-2.9.3-.9.3-1.7-.2-1.9Z"/>
      <path class="st5" d="M31.1,5c-.4,0-1.2-.2-1.5-.5-.6-.7-1.5-.8-2.2-.7-.7.2-1.1,1-.6,2,.2.5.2,1,0,1.5.7-.7,1.4-1.2,1.9-1.5,1-.5,1.8-.8,2.5-.9h0Z"/>
      <path class="st5" d="M40.4,12.6c.1-1.1,0-1.9,0-2.1h0s0,0,0,.1v-.3s-.7,2.8-2.1,3.8c-.3.2-.5.4-.7.5.1-.5.7-2.7,0-4,0,0-.3,5.1-3,5.4-2.7.3-6.5-2.5-7.6-3.6,0,.2.1.5.2.7,0,0,0,0,0,0,0,0,0,.1.1.3,0,.3.2.6.3.9.4,1.2.8,3.1.2,4.3-1,1.9-3,4.7-2.8,8.8.2,4.1.9,5.2,1.6,7.2.8,2,1,3.9.9,4.2-.2.3,0,2-3.7-.9-3.8-2.8-4.8-5.8-4.8-5.8,0,0-.9,1.9-.7,5.1.2,3.2,1.6,7.3,1.6,7.3,0,0-4.9-4-5.2-12-.2-7.4,4.1-15.9,4.8-17.2.3.6.8,1,1.4,1.2,0,0-1.9-1.1-.5-5.2,1.4-4.1,4.2-7.8,7.1-9.4,2.9-1.6,5.3-1.5,7.9-.4,0,0-3.5-3.3-8.1-.5-2.6,1.6-4.4,3.4-5.6,5.2-1,.2-2.3,0-2.8,0s-1.6.4-1.2,2c.4,1.5,1.6,3.1,1.5,3.9-.1.6-.2,1.2-.1,1.6-.6,1-3.5,5.6-4.3,9.3,0,0,1.6-16.3-3.4-19.1C6.3,1.3,2.3,3.6.9,7.2c-2.9,7.9,1.4,20.1,7.4,30,6,9.9,11.7,11.7,15.7,11.9,6.8.3,4.8-1.2,7.2-1.3,2.4-.2,2.1,1.3,6.1.7,3-.4,3.5-2.4,2.3-3.3-1.1-.9-.7-3,.3-7.6,1.1-4.6-.5-12.6-1.5-14.7-1.1-2.1-1-3.1.2-5.2,1.1-2,1.5-3.3,1.7-5.1h0ZM38.3,15.1s-.7,2.4-1.2,3.5c-.4,1-.6.9-.9,1,.1-.3.2-.7.4-1.4.2-.8,0-1,0-1-.2,1.2-.6,2.1-1,2.6-.4.1-.9.2-1.3,0-.5-.2-.6-2.7-.6-2.9,2.3.2,3.5-.8,4.6-2h0Z"/>
      <path class="st3" d="M59.8,11.5h-7.5v26.2h7.5c2.4,0,4.3-1.9,4.3-4.3V15.7c0-2.4-1.9-4.3-4.3-4.3h0ZM58.9,34.5h-3.1V14.6h3.1c1.1,0,1.6.8,1.6,2v15.8c0,1.3-.5,2-1.6,2h0Z"/>
      <path class="st1" d="M76.8,23c.5-.7.7-1.5.7-2.3v-4.9c0-2.3-1.9-4.2-4.2-4.3h-6.7v3.5c0,5.9,0,22.7,0,22.7h7.6c.6,0,1.3-.3,1.3-.3,1.6-.7,2.7-2.2,2.7-4v-7.3c0-1.1-.5-2.2-1.4-3h0ZM74,19.8c0,1.4-.5,2-1.6,2h-2.2v-7.2h2.2c1,0,1.6.8,1.6,2v3.1h0ZM70.1,24.9h2.8c1,0,1.8.7,1.8,2v5.6c0,1.2-.7,2-1.6,2h-3v-9.6Z"/>
      <path class="st1" d="M87.1,18.2h-3.9c-1.7,0-3.2,1.4-3.2,3.2v13.1c0,1.8,1.4,3.2,3.2,3.2h7.1s0-3.1-2.4-3.1h-4.4s0,0,0,0h0v-5h6.8v-8.1c0-1.8-1.4-3.2-3.2-3.2h0ZM86.7,21.4v4.9h-3.3v-4.9s0,0,0,0c0,0,0,0,0,0h3.2s0,0,0,0c0,0,0,0,0,0Z"/>
      <path class="st1" d="M99.1,18.2h-4.1c-2.4,0-2.4,3.1-2.4,3.1h6.2s0,0,0,0c0,0,0,0,0,0v3.1h-3.6c-1.7,0-3.2,1.4-3.2,3.2v6.8c0,1.8,1.4,3.2,3.2,3.2h7.1v-16.2c0-1.8-1.4-3.2-3.2-3.2h0ZM98.7,27.6v6.9h-3.2s0,0,0,0h0v-6.8s0,0,0,0c0,0,0,0,0,0h3.2,0Z"/>
      <path class="st1" d="M108.2,29.9l-2.2-11.7h-3.4l3.6,19.4h3.9l3.6-19.4h-3.3l-2.2,11.7Z"/>
      <path class="st1" d="M132.6,18.2h-.7c-1,0-1.9,0-2.3,0-1.8.2-3.1,1.5-3.1,3.2v16.2h3.5s0-10.7,0-15.2c0-1.2,0-1.2.9-1.2.8,0,1.1,0,1.5,0,1.9,0,1.9-3.1,1.9-3.1h-1.7Z"/>
      <path class="st1" d="M95.5,33.5v1h1c-.5,0-1-.4-1-1Z"/>
      <path class="st1" d="M83.5,33.5v1h1c-.5,0-1-.4-1-1Z"/>
      <path class="st1" d="M96.4,27.6h-1v1c0-.5.4-1,1-1Z"/>
      <path class="st1" d="M84.4,21.3h-1v1c0-.5.4-1,1-1Z"/>
      <path class="st1" d="M86.7,22.3v-1h-1c.5,0,1,.4,1,1Z"/>
      <path class="st1" d="M98.7,22.3v-1h-1c.5,0,1,.4,1,1Z"/>
      <path class="st1" d="M121.6,18.2h-3.9c-1.7,0-3.2,1.4-3.2,3.2v13.1c0,1.8,1.4,3.2,3.2,3.2h7.1s0-3.1-2.4-3.1h-4.4s0,0,0,0h0v-5h6.8v-8.1c0-1.8-1.4-3.2-3.2-3.2h0ZM121.3,21.4v4.9h-3.3v-4.9s0,0,0,0c0,0,0,0,0,0h3.2s0,0,0,0c0,0,0,0,0,0Z"/>
      <path class="st1" d="M118,33.5v1h1c-.5,0-1-.4-1-1Z"/>
      <path class="st1" d="M119,21.3h-1v1c0-.5.4-1,1-1Z"/>
      <path class="st1" d="M130.6,21.3h-1v1c0-.5.4-1,1-1Z"/>
      <path class="st1" d="M121.3,22.3v-1h-1c.5,0,1,.4,1,1Z"/>
    </g>
  </g>
</svg>